<svg width="21" height="21" viewBox="0 0 21 21" fill="none" xmlns="http://www.w3.org/2000/svg">
<g clip-path="url(#clip0_119_6)">
<path d="M2.46169 13.5333L1.35336 18.3167C1.31512 18.4915 1.31644 18.6727 1.35719 18.847C1.39795 19.0213 1.47713 19.1843 1.58895 19.324C1.70076 19.4638 1.84238 19.5768 2.00347 19.6548C2.16456 19.7329 2.34104 19.7739 2.52003 19.775C2.60342 19.7834 2.68746 19.7834 2.77086 19.775L7.58336 18.6667L16.8234 9.46167L11.6667 4.31667L2.46169 13.5333Z" fill="white"/>
<path d="M19.7283 4.85333L16.2866 1.41166C16.0604 1.18653 15.7542 1.06015 15.435 1.06015C15.1158 1.06015 14.8096 1.18653 14.5833 1.41166L12.67 3.32499L17.8208 8.47583L19.7342 6.56249C19.8461 6.44996 19.9348 6.31644 19.9951 6.1696C20.0554 6.02275 20.0862 5.86545 20.0857 5.7067C20.0851 5.54795 20.0533 5.39086 19.992 5.24443C19.9306 5.098 19.8411 4.9651 19.7283 4.85333Z" fill="white"/>
</g>
<defs>
<clipPath id="clip0_119_6">
<rect width="21" height="21" fill="white"/>
</clipPath>
</defs>
</svg>
