<svg width="18" height="18" viewBox="0 0 18 18" fill="none" xmlns="http://www.w3.org/2000/svg">
<path d="M9.84377 7.29166H12.3959M5.10419 11.3021H12.3959M5.46877 2.91666H12.0313C12.4834 2.91666 12.8844 2.93125 13.2417 2.98229C15.1594 3.19375 15.6771 4.09791 15.6771 6.5625V10.9375C15.6771 13.4021 15.1594 14.3062 13.2417 14.5177C12.8844 14.5687 12.4834 14.5833 12.0313 14.5833H5.46877C5.01669 14.5833 4.61565 14.5687 4.25835 14.5177C2.34065 14.3062 1.82294 13.4021 1.82294 10.9375V6.5625C1.82294 4.09791 2.34065 3.19375 4.25835 2.98229C4.61565 2.93125 5.01669 2.91666 5.46877 2.91666Z" stroke="white" stroke-width="1.5" stroke-linecap="round" stroke-linejoin="round"/>
<path d="M7.36096 7.29166H7.36752M5.17346 7.29166H5.18002" stroke="white" stroke-width="2" stroke-linecap="round" stroke-linejoin="round"/>
</svg>
