<svg width="17" height="18" viewBox="0 0 17 18" fill="none" xmlns="http://www.w3.org/2000/svg">
<g clip-path="url(#clip0_110_15)">
<path d="M5.5 1.93611V3.99861M11 1.93611V3.99861M2.40625 6.81049H14.0938M13.3994 13.658H11.3506M12.375 12.6542V14.7099M12.375 16.3736C13.1043 16.3736 13.8038 16.0839 14.3195 15.5682C14.8353 15.0524 15.125 14.353 15.125 13.6236C15.125 12.8943 14.8353 12.1948 14.3195 11.6791C13.8038 11.1633 13.1043 10.8736 12.375 10.8736C11.6457 10.8736 10.9462 11.1633 10.4305 11.6791C9.91473 12.1948 9.625 12.8943 9.625 13.6236C9.625 14.353 9.91473 15.0524 10.4305 15.5682C10.9462 16.0839 11.6457 16.3736 12.375 16.3736Z" stroke="white" stroke-width="1.5" stroke-miterlimit="10" stroke-linecap="round" stroke-linejoin="round"/>
<path d="M14.4375 6.40486V11.8086C13.9356 11.238 13.2 10.8736 12.375 10.8736C10.8556 10.8736 9.625 12.1042 9.625 13.6236C9.625 14.1392 9.76937 14.6274 10.0237 15.0399C10.1681 15.2874 10.3537 15.5074 10.5669 15.6861H5.5C3.09375 15.6861 2.0625 14.3111 2.0625 12.2486V6.40486C2.0625 4.34236 3.09375 2.96736 5.5 2.96736H11C13.4062 2.96736 14.4375 4.34236 14.4375 6.40486Z" stroke="white" stroke-width="1.5" stroke-miterlimit="10" stroke-linecap="round" stroke-linejoin="round"/>
<path d="M8.24659 9.97986H8.25346M5.70215 9.97986H5.70902M5.70215 12.0424H5.70902" stroke="white" stroke-width="2" stroke-linecap="round" stroke-linejoin="round"/>
</g>
<defs>
<clipPath id="clip0_110_15">
<rect width="16.5" height="16.5" fill="white" transform="translate(0 0.561111)"/>
</clipPath>
</defs>
</svg>
