<svg width="17" height="18" viewBox="0 0 17 18" fill="none" xmlns="http://www.w3.org/2000/svg">
<path d="M2.3729 1.97778H8.67706C9.20123 1.97778 9.63331 2.40986 9.63331 2.93403V3.98236C9.63331 4.36486 9.39248 4.83944 9.15873 5.08028L7.10456 6.89361C6.82123 7.13444 6.62998 7.60903 6.62998 7.99153V10.0457C6.62998 10.329 6.43873 10.7115 6.1979 10.8603L5.53206 11.2924C4.90873 11.6749 4.05165 11.2428 4.05165 10.4778V7.94903C4.05165 7.61611 3.8604 7.18403 3.66915 6.94319L1.85581 5.03069C1.61498 4.78986 1.42373 4.36486 1.42373 4.07444V2.97653C1.41665 2.40986 1.84873 1.97778 2.3729 1.97778Z" stroke="white" stroke-width="1.5" stroke-miterlimit="10" stroke-linecap="round" stroke-linejoin="round"/>
<path d="M1.41669 9.06111V11.1861C1.41669 14.7278 2.83335 16.1444 6.37502 16.1444H10.625C14.1667 16.1444 15.5834 14.7278 15.5834 11.1861V6.93611C15.5834 4.72611 15.0309 3.33778 13.7488 2.61528C13.3875 2.40986 12.665 2.25403 12.0063 2.14778M9.20835 9.76944H12.75M7.79169 12.6028H12.75" stroke="white" stroke-width="1.5" stroke-linecap="round" stroke-linejoin="round"/>
</svg>
