<svg width="19" height="20" viewBox="0 0 19 20" fill="none" xmlns="http://www.w3.org/2000/svg">
<path d="M9.5 1C4.80558 1 1 4.93119 1 9.78056C1 14.6299 4.80558 18.5611 9.5 18.5611C14.1944 18.5611 18 14.6299 18 9.78056C18 4.93119 14.1944 1 9.5 1Z" stroke="#FFFBFB" stroke-width="1.5" stroke-linecap="round" stroke-linejoin="round"/>
<path d="M2.9303 15.3524C2.9303 15.3524 4.82496 12.8537 9.49995 12.8537C14.1749 12.8537 16.0697 15.3524 16.0697 15.3524" stroke="#FFFBFB" stroke-width="1.5" stroke-linecap="round" stroke-linejoin="round"/>
<path d="M9.50001 9.7807C10.9084 9.7807 12.05 8.60139 12.05 7.14654C12.05 5.69173 10.9084 4.51237 9.50001 4.51237C8.09165 4.51237 6.95001 5.69173 6.95001 7.14654C6.95001 8.60139 8.09165 9.7807 9.50001 9.7807Z" stroke="#FFFBFB" stroke-width="1.5" stroke-linecap="round" stroke-linejoin="round"/>
</svg>
